# xmcd CD database file
#
# Track frame offsets:
#	200
#	11982
#	27740
#	41732
#	51095
#	73732
#	95315
#	113475
#	135072
#	146472
#	158502
#	170105
#	177587
#	190882
#	206220
#	218987
#	238625
#	256727
#	267660
#	277547
#
# Disc length: 3847 seconds
#
# Revision: 3
# Processed by: cddbd v1.5.2PL0 Copyright (c) Steve Scherf et al.
# Submitted via: CDex 1.51
#
DISCID=240f0514
DTITLE=Various Artist - Best Of The Blues
DYEAR=1900
DGENRE=Blues
TTITLE0=Memphis Slim - I'm So All Alone
TTITLE1=Memphis Slim - Three Women Blues
TTITLE2=Lightnin' Hopkins - Big Black Cadillac Blues
TTITLE3=Lightnin' Hopkins - Coffee House Blues
TTITLE4=Big Bill Broonzy - Ridin' On Down
TTITLE5=Big Bill Broonzy - I Got Up One Mornin' Blues
TTITLE6=Brownie and Sonny - I'm A Stranger Here
TTITLE7=Brownie and Sonny - Blues For The Lowlands
TTITLE8=Big Joe Williams - Jinx Blues
TTITLE9=Big Joe Williams - Old Saw Mill Blues
TTITLE10=Ray Charles - Guitar Blues
TTITLE11=Ray Charles - Jammin' The Blues
TTITLE12=Billie Holiday - My Man
TTITLE13=Billie Holiday - Lover Man
TTITLE14=Louis Armstrong - Heebie Jeebiees
TTITLE15=Louis Armstrong - Black and Blue
TTITLE16=John Lee Hooker - Wednesday Evening Blues
TTITLE17=John Lee Hooker - Maudie
TTITLE18=Leadbelly - How Long (with Sonny Terry)
TTITLE19=Leadbelly - I've Got A Pretty Flower (with Josh White)
EXTD=
EXTT0=
EXTT1=
EXTT2=
EXTT3=
EXTT4=
EXTT5=
EXTT6=
EXTT7=
EXTT8=
EXTT9=
EXTT10=
EXTT11=
EXTT12=
EXTT13=
EXTT14=
EXTT15=
EXTT16=
EXTT17=
EXTT18=
EXTT19=
PLAYORDER=
